PathFileType	4	(X/Y/Z)	Patient5_TMGait_0pt45_1_right_06.trc.trc
DataRate	CameraRate	NumFrames	NumMarkers	Units	OrigDataRate	OrigDataStartFrame	OrigNumFrames
63.636363636364	63.636363636364	6	32	mm	63.636363636364	36	       141
Frame#	Time	R.ASIS			L.ASIS			Chest			R.Shoulder			Neck			L.Shoulder			L.Elbow			L.Wrist			R.Elbow			R.Wrist			L.Thigh.Superior			L.Thigh.Lateral			L.Thigh.Inferior			L.Patella			L.Shank.Superior			L.Shank.Lateral			L.Shank.Inferior			L.Heel			L.Midfoot.Lateral			L.Midfoot.Superior			L.Toe			R.Thigh.Superior			R.Thigh.Lateral			R.Thigh.Inferior			R.Patella			R.Shank.Superior			R.Shank.Lateral			R.Shank.Inferior			R.Heel			R.Midfoot.Lateral			R.Midfoot.Superior			R.Toe			
		X1	Y1	Z1	X2	Y2	Z2	X3	Y3	Z3	X4	Y4	Z4	X5	Y5	Z5	X6	Y6	Z6	X7	Y7	Z7	X8	Y8	Z8	X9	Y9	Z9	X10	Y10	Z10	X11	Y11	Z11	X12	Y12	Z12	X13	Y13	Z13	X14	Y14	Z14	X15	Y15	Z15	X16	Y16	Z16	X17	Y17	Z17	X18	Y18	Z18	X19	Y19	Z19	X20	Y20	Z20	X21	Y21	Z21	X22	Y22	Z22	X23	Y23	Z23	X24	Y24	Z24	X25	Y25	Z25	X26	Y26	Z26	X27	Y27	Z27	X28	Y28	Z28	X29	Y29	Z29	X30	Y30	Z30	X31	Y31	Z31	X32	Y32	Z32	

36	10.170000000000	989.421600771846	970.908254204322	578.542738223612	963.518069340731	957.277250285239	340.669073195813	1041.243031700719	1429.596812909949	489.698603521427	953.558136160048	1485.511447543032	664.907689208682	916.917811092297	1553.966771831069	486.003011051464	966.782056401431	1506.863913190538	299.824962696743	853.815941992668	1207.363515430018	159.146837091304	935.112882945277	931.627235746456	123.452202721642	888.134205297896	1159.477252213211	797.935859677761	1098.180235099238	979.808188929572	708.773377390739	981.744573159477	733.981301809795	312.388836781946	904.617357326237	667.570648862862	271.031275486318	982.820684219929	603.466825594791	317.727689814673	964.339423900886	460.310381797372	307.417897893397	868.126632277039	386.048889538394	339.307866672739	764.896496299130	369.779455688602	272.338956754622	773.014079208797	303.960984639404	358.010242127759	531.747348286079	186.902030312339	374.274298826284	585.907498220571	109.415300010586	319.267598365430	701.508348959932	106.899511654550	351.501766617216	761.074650916945	39.870921969980	365.958146458262	1022.405585418691	745.418915985824	607.123542916588	942.363435166882	659.678104202341	652.483416027623	1032.238258357170	618.029857378891	581.885778190395	1038.877113550115	518.556884453208	607.278192081959	1000.120556396606	417.102149637944	563.474049027388	926.971298569966	345.143727638750	640.776715772420	982.644856660531	278.079983751712	556.428114376937	861.200707124535	53.457508730704	512.833675145683	937.473615785195	25.210715150710	588.606466817220	1043.962970454787	88.563013644999	568.538328783492	1147.645797607348	44.110012799463	571.624522735695	
37	10.185714285714	991.130600441670	970.730898059694	579.620674414070	962.356846503243	957.279140577135	342.659920188101	1043.512238704272	1428.875676845928	492.756834799765	957.488415897222	1484.533236921877	668.914631973811	919.191416420365	1553.687010428657	490.581197794611	967.940892585355	1507.318259117486	303.831371985389	851.633948891075	1209.392281996045	162.890052923737	930.276947580303	932.773341590382	127.413709519139	892.887004681643	1158.869215899280	802.972217105796	1103.876384477247	981.633043690298	711.415575815943	988.431762473656	736.413885181897	310.076599921565	914.249114836956	668.007827781387	268.814766293240	995.897499892024	606.399692480868	314.137057842766	982.048225259127	461.959391293056	303.897271653342	883.624206676540	387.896977786164	336.294018825101	780.232104524955	374.402556039253	269.215514847755	785.773667190317	309.500839105118	355.548706411366	541.141878719872	206.601248279196	371.679173666999	589.212703983792	124.327754916257	317.443771903568	704.721686830548	113.195876962703	350.113461437481	757.632693641993	39.097720381899	365.168867227210	1019.499780282914	744.232096735871	606.250632823421	938.478975286789	659.765447098492	653.254480469207	1025.738556011117	616.506879547588	580.729831454128	1031.188564089123	517.510400734978	606.067751233251	991.862652111845	416.931849366751	563.088914786880	919.818457238768	344.918249425990	640.994086685074	974.872790891710	277.970515464239	556.182477513218	854.095815210434	53.226995257289	512.764265487499	930.306275051136	25.059860120678	588.643619807443	1036.786889743539	88.392441054462	568.302937681038	1140.530329319136	44.060303629853	571.595577888998	
38	10.201428571429	992.717005655814	970.521699451091	580.696500274890	961.081069775346	957.045425181098	344.380383284344	1045.579192031129	1427.871264538639	495.468394224415	961.228476558297	1483.144020224228	672.591352950910	921.272614075072	1553.078204036141	494.847778946538	968.725689279567	1507.463947485350	307.516424223838	849.513605911683	1210.728793597967	166.626609520784	926.077099705522	933.452355428425	131.331711017514	897.672142066152	1157.795871789973	807.742269680901	1109.413812083329	982.500491612842	714.493423145124	994.955947513791	739.281988137821	308.088221850130	923.846578509873	668.727571154268	267.025151563821	1008.895419741134	610.066733294617	311.198554278238	999.817210366467	464.505981945800	301.337461467028	899.446794891900	390.418139278352	333.973610243601	796.202365713882	379.369433578332	266.553332061852	799.178744187462	315.528531308657	353.597286127345	551.998728627584	225.776190275919	369.197061079583	594.414569640846	139.584022914810	315.538043002406	709.437278821563	120.565650700764	348.906834923374	755.996504423572	38.825608032335	364.188859133666	1016.264241215834	742.927076704082	604.794833567303	934.369735869102	659.907311369292	653.874720134162	1018.579813600381	614.949042293596	579.137554497123	1022.846431512952	516.547471424852	604.480208839857	982.926961187951	416.921020502059	562.514733983917	912.387250122863	344.805768388591	641.229238569903	966.762904230568	278.020179792997	555.817765904843	846.979430279862	53.033979954164	512.723140482931	923.129218904406	24.926999686625	588.676779000499	1029.620002274083	88.246950028657	568.033041678495	1133.411471746212	43.999168322170	571.532238060617	
39	10.217142857143	994.106552069501	970.363584506683	581.991342761786	959.777885453070	956.730874807212	345.904427951711	1047.437463064668	1426.750020547406	497.785294770034	964.733309524805	1481.510435566549	675.863841890138	923.192142024672	1552.290469995951	498.720548933444	969.172970370156	1507.453661827303	310.818161719956	847.457526514675	1211.474246763305	170.384503341681	922.448194544669	933.745889594315	135.134951071338	902.587507314931	1156.394879855727	812.108969320558	1114.781325501549	982.332931733071	717.949859683954	1001.157830705884	742.704935516207	306.709438560703	933.205425833648	669.897743891518	265.845517814655	1021.495804718034	614.565133863344	309.140130285720	1017.263725827774	467.975154606732	299.758201807523	915.259445651932	393.642231089710	332.385632459934	812.400451743436	384.638919667014	264.451524227148	812.954285684566	321.869730687422	352.164034196158	563.918842955856	243.375997276487	366.928672907358	601.646230296753	154.292710298483	313.599276928635	715.956716078582	128.658935242979	347.879830538590	756.935240000329	39.400206193951	363.026128600365	1012.759078418478	741.525437398602	603.225152130095	929.925786000788	660.093491659019	654.421945019617	1010.945965377073	613.415181966224	577.497161064600	1013.983355042051	515.684446916189	602.843680347143	973.476261842904	417.088761411076	561.914511067154	904.654245357459	344.858998667876	641.526832423820	958.406375841710	278.260188695542	555.453825686479	839.842944951415	52.904814991848	512.733789637265	915.944192569030	24.822605027444	588.720670675066	1022.456975166427	88.141642086815	567.782491288700	1126.278676867629	43.948413232671	571.463388189640	
40	10.232857142857	995.225669137013	970.279568490226	583.619000046768	958.535260599995	956.487708695479	347.307134477279	1049.106347986342	1425.676840821032	499.665355398054	967.998294009652	1479.810987698179	678.673255282834	924.994652128764	1551.477298876875	502.139079037201	969.338690649341	1507.445497925754	313.692801124491	845.508144315362	1211.788344749398	174.134238599097	919.358123992561	933.778084747092	138.782677214879	907.665308536671	1154.847454596840	815.972524315397	1119.952119970680	981.189612131723	721.689447212898	1006.930965828530	746.733284790883	306.155533811899	942.173746604645	671.645584550897	265.382773588234	1033.438834713453	619.903283686051	308.105695512787	1034.075579498757	472.343162815415	299.106065274753	930.792696627625	397.529987286485	331.512705527119	828.461582271940	390.110004780456	262.976992678700	826.884713316359	328.279741215569	351.231234072186	576.509722494097	258.339776492166	364.969457812454	611.001867440218	167.502153259377	311.677987085109	724.579989533400	137.008617293653	347.003730674133	761.276537910364	41.112602067973	361.676268962555	1009.014981099892	740.055788844054	601.920524515910	925.077255232001	660.300274864330	654.960666595566	1003.032087088756	611.949119270226	576.117010228822	1004.777869601136	514.911756333457	601.421979569841	963.711575731982	417.420329862536	561.418437366544	896.622684999086	345.091617312895	641.899013977464	949.900763801545	278.681256188048	555.183370842016	832.678746528987	52.847891078435	512.804042093901	908.750449173834	24.749368069740	588.781594432357	1015.289549652575	88.080050742483	567.586283206703	1119.122701483494	43.923068483296	571.407896791788	
41	10.248571428571	995.994804133869	970.218857570560	585.527573631634	957.425466664679	956.436574301208	348.650821046605	1050.631672920000	1424.778024682973	501.081769104359	971.066942720353	1478.203671295088	680.983071865630	926.734785407206	1550.765579571000	505.068000657168	969.301006620905	1507.565441384648	316.118027653250	843.726753084869	1211.853926289986	177.793717728398	916.816061442108	933.691682017450	142.258479446317	912.864729525869	1153.341256563556	819.279717330308	1124.883562418004	979.247821766454	725.589452454563	1012.228633882216	751.341412436847	306.540534709283	950.669374906327	674.037712376621	265.656174022722	1044.544775930773	626.000819625116	308.151921483058	1050.028939441336	477.540988402815	299.297252408932	945.868714356081	401.968227129045	331.305937904330	844.109685901653	395.613095123536	262.167980507867	840.837038785603	334.461183966975	350.769320773181	589.480658260866	269.741261852691	363.395760673325	622.532395447242	178.339120033083	309.819131822309	735.558232659962	145.089658832219	346.223882705192	769.752731434591	44.082907054893	360.107427039597	1005.062862953929	738.562118021541	601.098691567229	919.852671403125	660.498957943151	655.535827138796	995.063321724198	610.583583296852	575.181877839515	995.479825115616	514.204798470381	600.380301450587	953.888987873097	417.870950826527	561.110674990168	888.369811982635	345.479461010917	642.335241988388	941.364631120968	279.235529219027	555.061989325591	825.481519361542	52.857868047925	512.930986958690	901.546883132730	24.704803339657	588.859650967734	1008.110232971883	88.056181887671	567.461094025533	1111.939479480537	43.930313529941	571.373400883877	
